<svg xmlns="http://www.w3.org/2000/svg" width="225.1904742717743" height="219.23809337615967" style=""><rect id="backgroundrect" width="100%" height="100%" x="0" y="0" fill="none" stroke="none" style="" class=""/>
    
    
<g class="currentLayer" style=""><title>Layer 1</title><path fill="none" d="M0 0h24v24H0z" id="svg_1"/><path d="M121.46563720703125,44.07143998146057 h-15.955026626586914 v77.46031951904297 h15.955026626586914 V44.07143998146057 zm38.53138732910156,16.808889389038086 l-11.328068733215332,10.999364852905273 C161.27340698242188,81.71714997291565 169.33071899414062,96.82188630104065 169.33071899414062,113.78572297096252 c0,29.977142333984375 -24.96961784362793,54.22222137451172 -55.842594146728516,54.22222137451172 s-55.842594146728516,-24.245080947875977 -55.842594146728516,-54.22222137451172 c0,-16.963809967041016 8.05728816986084,-32.06856918334961 20.58198356628418,-41.98349380493164 L66.97920227050781,60.88031601905823 C51.502864837646484,73.66127228736877 41.690494537353516,92.56161713600159 41.690494537353516,113.78572297096252 c0,38.49777603149414 32.14937973022461,69.71428680419922 71.79762268066406,69.71428680419922 s71.79762268066406,-31.216508865356445 71.79762268066406,-69.71428680419922 c0,-21.2241268157959 -9.812341690063477,-40.12444305419922 -25.28871726989746,-52.9053955078125 z" id="svg_2" class=""/></g></svg>